<?xml version="1.0" encoding="UTF-8"?>
<!DOCTYPE svg PUBLIC "-//W3C//DTD SVG 1.1//EN" "http://www.w3.org/Graphics/SVG/1.1/DTD/svg11.dtd">
<!-- Creator: CorelDRAW -->
<svg xmlns="http://www.w3.org/2000/svg" xml:space="preserve" width="2048px" height="2048px" style="shape-rendering:geometricPrecision; text-rendering:geometricPrecision; image-rendering:optimizeQuality; fill-rule:evenodd; clip-rule:evenodd"
viewBox="0 0 2048 2048"
 xmlns:xlink="http://www.w3.org/1999/xlink">
 <defs>
  <style type="text/css">
   <![CDATA[
    .fil2 {fill:none}
    .fil6 {fill:#6D4C41}
    .fil1 {fill:#FB8C00}
    .fil0 {fill:#FFB74D}
    .fil4 {fill:#5D4037;fill-rule:nonzero}
    .fil3 {fill:#6D4C41;fill-rule:nonzero}
    .fil5 {fill:#FFD54F;fill-rule:nonzero}
   ]]>
  </style>
   <clipPath id="id0">
    <path d="M1024 -0.0011811c565.539,0 1024,458.462 1024,1024 0,565.539 -458.462,1024 -1024,1024 -565.539,0 -1024,-458.462 -1024,-1024 0,-565.539 458.462,-1024 1024,-1024z"/>
   </clipPath>
 </defs>
 <g id="Layer_x0020_1">
  <metadata id="CorelCorpID_0Corel-Layer"/>
  <path class="fil0" d="M1024 -0.0011811c565.539,0 1024,458.462 1024,1024 0,565.539 -458.462,1024 -1024,1024 -565.539,0 -1024,-458.462 -1024,-1024 0,-565.539 458.462,-1024 1024,-1024z"/>
  <g style="clip-path:url(#id0)">
   <g id="_300474824">
    <g>
     <polygon id="_3603751761" class="fil1" points="803.272,483.186 1939.15,1619.07 1940.75,1620.76 1942.32,1622.49 1943.89,1624.25 1945.44,1626.06 1946.98,1627.89 1948.51,1629.75 1950.03,1631.63 1951.54,1633.53 1953.05,1635.44 1954.56,1637.37 1956.06,1639.3 1957.56,1641.24 821.679,505.36 820.179,503.422 818.677,501.488 817.172,499.561 815.663,497.646 814.149,495.746 812.627,493.864 811.097,492.005 809.558,490.173 808.006,488.372 806.443,486.604 804.865,484.874 "/>
     <polygon id="_360375080" class="fil1" points="821.679,505.36 1957.56,1641.24 1959.24,1643.41 1960.91,1645.57 1962.56,1647.69 1964.17,1649.76 1965.74,1651.76 1967.26,1653.68 1968.7,1655.49 1970.07,1657.19 1971.35,1658.75 1972.53,1660.16 1973.59,1661.4 1974.53,1662.45 838.652,526.565 837.71,525.514 836.645,524.276 835.468,522.87 834.19,521.308 832.822,519.612 831.375,517.797 829.862,515.88 828.292,513.878 826.679,511.807 825.03,509.686 823.36,507.532 "/>
     <polygon id="_360375968" class="fil1" points="930.014,476.335 2065.89,1612.22 2067.23,1613.74 2068.55,1615.33 2069.85,1616.99 2071.13,1618.7 2072.39,1620.46 2073.64,1622.27 2074.87,1624.12 2076.09,1626.02 2077.29,1627.95 2078.49,1629.92 2079.67,1631.91 2080.85,1633.93 2082.02,1635.96 2083.18,1638.02 2084.34,1640.08 2085.5,1642.16 2086.66,1644.24 950.778,508.354 949.621,506.275 948.463,504.201 947.303,502.135 946.138,500.081 944.968,498.044 943.791,496.027 942.605,494.033 941.411,492.069 940.207,490.137 938.989,488.241 937.758,486.385 936.512,484.575 935.251,482.814 933.97,481.105 932.672,479.452 931.353,477.861 "/>
     <polygon id="_360376088" class="fil1" points="950.778,508.354 2086.66,1644.24 2087.55,1646.13 2088.15,1648.01 2088.5,1649.85 2088.64,1651.65 2088.62,1653.4 2088.49,1655.07 2088.29,1656.65 2088.06,1658.13 2087.86,1659.49 2087.71,1660.71 2087.67,1661.79 2087.79,1662.71 2088.1,1663.44 952.22,527.56 951.907,526.823 951.791,525.907 951.829,524.829 951.974,523.604 952.182,522.245 952.41,520.767 952.612,519.186 952.743,517.517 952.759,515.772 952.615,513.97 952.267,512.123 951.669,510.246 "/>
     <polygon id="_360376016" class="fil1" points="1059.98,483.533 2195.86,1619.42 2197.37,1621.13 2198.86,1622.89 2200.34,1624.69 2201.8,1626.53 2203.26,1628.39 2204.7,1630.29 2206.13,1632.2 2207.56,1634.14 2208.98,1636.09 2210.39,1638.05 2211.81,1640.02 2213.22,1641.99 1077.34,506.107 1075.92,504.135 1074.51,502.165 1073.1,500.204 1071.68,498.254 1070.25,496.32 1068.82,494.404 1067.37,492.512 1065.92,490.647 1064.46,488.813 1062.98,487.013 1061.49,485.252 "/>
     <polygon id="_360376040" class="fil1" points="1077.34,506.107 2213.22,1641.99 2214.72,1644.09 2216.2,1646.18 2217.65,1648.23 2219.06,1650.23 2220.42,1652.17 2221.72,1654.03 2222.95,1655.78 2224.1,1657.42 2225.16,1658.94 2226.11,1660.3 2226.95,1661.49 2227.67,1662.51 2228.25,1663.33 2228.69,1663.94 2228.97,1664.31 1093.09,528.43 1092.81,528.055 1092.37,527.449 1091.79,526.629 1091.07,525.612 1090.23,524.415 1089.27,523.053 1088.22,521.542 1087.07,519.9 1085.84,518.144 1084.54,516.289 1083.18,514.35 1081.76,512.347 1080.31,510.294 1078.83,508.21 "/>
     <polygon id="_360376160" class="fil1" points="1175.23,480.743 2311.11,1616.63 2312.57,1618.3 2314,1620.02 2315.4,1621.8 2316.78,1623.61 2318.14,1625.47 2319.48,1627.36 2320.8,1629.28 2322.11,1631.23 2323.4,1633.21 2324.69,1635.2 2325.96,1637.21 2327.23,1639.24 2328.49,1641.27 2329.75,1643.3 1193.87,507.419 1192.61,505.383 1191.35,503.353 1190.08,501.331 1188.81,499.32 1187.52,497.325 1186.23,495.35 1184.92,493.399 1183.6,491.476 1182.26,489.585 1180.9,487.728 1179.52,485.913 1178.12,484.14 1176.69,482.416 "/>
     <polygon id="_360375752" class="fil1" points="1193.87,507.419 2329.75,1643.3 2330.98,1645.28 2332.19,1647.24 2333.39,1649.18 2334.56,1651.06 2335.69,1652.89 2336.77,1654.63 2337.8,1656.29 2338.76,1657.84 2339.65,1659.26 2340.44,1660.54 2341.15,1661.67 2341.75,1662.62 2342.24,1663.4 2342.6,1663.97 2342.83,1664.32 2342.92,1664.44 1207.04,528.559 1206.95,528.437 1206.72,528.084 1206.35,527.514 1205.87,526.743 1205.27,525.785 1204.56,524.658 1203.76,523.375 1202.88,521.953 1201.92,520.407 1200.89,518.752 1199.81,517.006 1198.68,515.181 1197.51,513.294 1196.31,511.362 1195.1,509.398 "/>
     <polygon id="_360376208" class="fil1" points="1317.49,483.663 2453.37,1619.55 2454.85,1621.28 2456.32,1623.05 2457.76,1624.86 2459.2,1626.71 2460.62,1628.58 2462.03,1630.49 2463.43,1632.42 2464.82,1634.36 2466.21,1636.33 2467.6,1638.3 2468.97,1640.28 2470.35,1642.27 1334.47,506.389 1333.09,504.402 1331.71,502.42 1330.33,500.445 1328.94,498.482 1327.55,496.535 1326.15,494.607 1324.74,492.702 1323.32,490.824 1321.88,488.978 1320.43,487.166 1318.97,485.393 "/>
     <polygon id="_360376568" class="fil1" points="1334.47,506.389 2470.35,1642.27 2471.78,1644.35 2473.16,1646.41 2474.5,1648.43 2475.79,1650.41 2477.02,1652.33 2478.19,1654.16 2479.29,1655.89 2480.31,1657.51 2481.25,1659 2482.1,1660.35 2482.86,1661.53 2483.52,1662.54 2484.07,1663.35 2484.51,1663.94 1348.63,528.061 1348.19,527.463 1347.63,526.654 1346.98,525.65 1346.22,524.468 1345.37,523.122 1344.43,521.631 1343.4,520.01 1342.31,518.275 1341.14,516.443 1339.91,514.53 1338.62,512.552 1337.28,510.524 1335.9,508.465 "/>
     <polygon id="_360376808" class="fil1" points="1372.42,528.559 2508.3,1664.44 2508.3,1688.4 1372.42,552.521 "/>
     <polygon id="_360376664" class="fil1" points="1372.42,552.521 2508.3,1688.4 2508.54,1705.05 2509.23,1721.67 2510.35,1738.27 2511.86,1754.85 2513.74,1771.44 2515.95,1788.04 2518.46,1804.67 2521.26,1821.34 2524.29,1838.05 2527.55,1854.83 2530.98,1871.67 2534.57,1888.61 2538.29,1905.63 2542.11,1922.77 2545.98,1940.02 2549.9,1957.41 2553.81,1974.94 2557.71,1992.62 2561.55,2010.47 2565.3,2028.5 2568.94,2046.72 2572.43,2065.14 2575.75,2083.78 2578.87,2102.64 2581.75,2121.74 2584.37,2141.08 2586.69,2160.69 2588.69,2180.57 2590.33,2200.73 2591.59,2221.19 2592.43,2241.95 2592.83,2263.04 1456.95,1127.16 1456.55,1106.07 1455.71,1085.31 1454.45,1064.85 1452.81,1044.68 1450.81,1024.81 1448.49,1005.2 1445.87,985.854 1442.99,966.757 1439.87,947.897 1436.55,929.261 1433.06,910.841 1429.42,892.621 1425.66,874.592 1421.83,856.742 1417.93,839.057 1414.01,821.527 1410.1,804.141 1406.22,786.885 1402.41,769.75 1398.69,752.723 1395.1,735.791 1391.66,718.943 1388.41,702.168 1385.38,685.454 1382.58,668.789 1380.07,652.162 1377.85,635.56 1375.98,618.971 1374.47,602.385 1373.35,585.789 1372.66,569.172 "/>
     <polygon id="_360377024" class="fil1" points="1456.95,1127.16 2592.83,2263.04 2592.87,2277.76 2592.77,2292.43 2592.51,2307.04 2592.1,2321.59 2591.54,2336.08 2590.82,2350.52 2589.95,2364.9 2588.93,2379.22 2587.75,2393.48 2586.42,2407.68 2584.93,2421.82 2583.29,2435.9 2581.48,2449.92 2579.52,2463.88 2577.4,2477.79 2575.12,2491.63 2572.69,2505.41 2570.08,2519.13 2567.32,2532.78 2564.4,2546.38 2561.31,2559.91 2558.06,2573.38 2554.64,2586.79 2551.06,2600.14 2547.32,2613.42 2543.41,2626.64 2539.33,2639.8 2535.08,2652.89 2530.66,2665.92 2526.08,2678.89 2521.32,2691.79 2516.4,2704.62 1380.52,1568.74 1385.44,1555.9 1390.2,1543 1394.78,1530.04 1399.2,1517.01 1403.44,1503.92 1407.52,1490.76 1411.44,1477.54 1415.18,1464.26 1418.76,1450.91 1422.18,1437.5 1425.43,1424.03 1428.52,1410.5 1431.44,1396.9 1434.2,1383.24 1436.8,1369.52 1439.24,1355.74 1441.52,1341.9 1443.64,1328 1445.6,1314.04 1447.41,1300.02 1449.05,1285.94 1450.54,1271.79 1451.87,1257.59 1453.05,1243.33 1454.07,1229.01 1454.94,1214.64 1455.66,1200.2 1456.22,1185.71 1456.63,1171.16 1456.89,1156.55 1456.99,1141.88 "/>
     <polygon id="_360376976" class="fil1" points="1380.55,1568.77 2516.44,2704.65 2515.66,2706.41 2514.77,2708.08 2513.76,2709.65 2512.65,2711.12 2511.43,2712.49 2510.13,2713.75 2508.73,2714.91 2507.26,2715.95 2505.72,2716.88 2504.12,2717.69 2502.46,2718.38 2500.75,2718.94 2499,2719.38 2497.22,2719.68 2495.42,2719.85 2493.59,2719.88 1357.71,1584 1359.53,1583.97 1361.34,1583.8 1363.12,1583.49 1364.87,1583.06 1366.58,1582.5 1368.24,1581.81 1369.84,1581 1371.38,1580.07 1372.85,1579.03 1374.25,1577.87 1375.55,1576.61 1376.77,1575.24 1377.88,1573.76 1378.89,1572.19 1379.78,1570.53 "/>
     <polygon id="_360376712" class="fil1" points="1357.71,1584 2493.59,2719.88 1825.64,2719.88 689.76,1584 "/>
     <polygon id="_360376328" class="fil1" points="689.76,1584 1825.64,2719.88 1823.65,2719.8 1821.7,2719.56 1819.81,2719.16 1817.97,2718.62 1816.2,2717.94 1814.49,2717.13 1812.87,2716.19 1811.33,2715.13 1809.88,2713.96 673.995,1578.08 675.447,1579.25 676.988,1580.31 678.614,1581.25 680.317,1582.06 682.09,1582.74 683.926,1583.28 685.822,1583.67 687.768,1583.91 "/>
    </g>
    <path id="_300475256" class="fil1" d="M766.022 464c23.648,0 39.6544,20.6811 55.6571,41.3599 8.97638,11.5984 17.9551,23.1992 19.2851,23.1992 0.0767717,0 6.62245,-10.5697 13.1681,-21.1406 13.4433,-21.7087 26.8878,-43.4185 52.2626,-43.4185 19.7138,0 32.0481,22.1788 44.3823,44.354 5.61851,10.102 -3.21024,20.2051 4.01457,20.2051 0.170079,0 7.85197,-11.2264 15.874,-22.4504 15.0461,-21.052 30.0945,-42.1087 53.3363,-42.1087 23.2394,0 38.2866,21.0555 53.3327,42.1075 8.02205,11.224 15.7063,22.4516 15.8764,22.4516 7.22245,0 -1.60512,-10.102 4.01339,-20.2051 12.3343,-22.1752 24.6685,-44.354 44.3823,-44.354 25.376,0 38.8193,21.7099 52.2626,43.4185 6.54567,10.5709 13.0913,21.1406 13.1669,21.1406 1.3311,0 10.3099,-11.6008 19.2862,-23.1992 16.0039,-20.6788 32.0091,-41.3599 55.6559,-41.3599 23.0929,0 37.7929,21.1949 52.493,42.3886 7.6878,11.0858 13.9665,22.1705 14.6705,22.1705l23.276 0 0 23.9622c0,177.826 82.7446,347.978 84.5339,574.637 1.2437,157.35 -22.9902,305.019 -76.4351,441.579l0.0366142 0.0283465c-3.76772,9.62717 -13.076,15.4441 -22.8437,15.2291l-667.951 0c-10.7303,0 -19.8142,-7.05473 -22.8662,-16.7788 -53.0315,-136.136 -77.0847,-283.292 -75.8457,-440.058 1.84016,-233.033 84.5351,-389.379 84.5351,-574.637l0 -23.9622 23.276 0c0.703938,0 6.98504,-11.0858 14.6717,-22.1705 14.7,-21.1937 29.4,-42.3886 52.4918,-42.3886z"/>
   </g>
  </g>
  <path class="fil2" d="M1024 -0.0011811c565.539,0 1024,458.462 1024,1024 0,565.539 -458.462,1024 -1024,1024 -565.539,0 -1024,-458.462 -1024,-1024 0,-565.539 458.462,-1024 1024,-1024z"/>
  <path class="fil3" d="M675.583 619.472l0 -66.952 0 -23.9622 23.276 0c0.703938,0 6.98504,-11.0858 14.6717,-22.1705 14.7,-21.1937 29.4,-42.3886 52.4918,-42.3886 23.648,0 39.6544,20.6811 55.6571,41.3599 8.97638,11.5984 17.954,23.1992 19.2851,23.1992 0.0767717,0 6.62245,-10.5697 13.1681,-21.1406 13.4433,-21.7087 26.8878,-43.4185 52.2626,-43.4185 19.7138,0 32.0481,22.1788 44.3823,44.354 5.61851,10.102 -3.21024,20.2051 4.01457,20.2051 0.170079,0 7.85197,-11.2264 15.874,-22.4504 15.0461,-21.052 30.0945,-42.1087 53.3351,-42.1087 23.2406,0 38.2878,21.0555 53.3339,42.1075 8.02205,11.224 15.7063,22.4516 15.8752,22.4516 7.22363,0 -1.60276,-10.102 4.01457,-20.2051 12.3343,-22.1752 24.6685,-44.354 44.3823,-44.354 25.3748,0 38.8205,21.7099 52.2626,43.4185 6.54567,10.5709 13.0913,21.1406 13.1669,21.1406 1.3311,0 10.3099,-11.6008 19.2862,-23.1992 16.0039,-20.6788 32.0091,-41.3599 55.6559,-41.3599 23.0929,0 37.7929,21.1949 52.493,42.3886 7.6878,11.0858 13.9665,22.1705 14.6705,22.1705l23.276 0 0 23.9622 0 66.952 -696.836 0z"/>
  <path class="fil4" d="M1381.27 630.864c-1.75748,-6.35788 -5.92678,-11.4024 -11.2453,-14.4165l0 -3.18071 -696.93 0 0 6.84567c-2.93977,2.85945 -5.18504,6.5126 -6.3567,10.7516 -47.9882,173.93 -74.4508,339.825 -75.6863,496.294 -1.23898,156.765 22.8142,303.921 75.8457,440.058 3.05197,9.72402 12.1358,16.7788 22.8662,16.7788l667.951 0c9.76772,0.214961 19.076,-5.60197 22.8437,-15.2291l-22.3134 -8.73308 22.2768 8.70473c53.4449,-136.56 77.6788,-284.229 76.4351,-441.579 -1.23543,-156.469 -27.6981,-322.363 -75.6863,-496.294z"/>
  <path class="fil5" d="M773.088 1295.39c14.8476,-88.3111 46.1044,-174.865 91.6217,-252.861 44.1898,-75.7193 101.956,-143.574 171.35,-197.372l16.5732 -12.848 13.1433 16.4469c17.9811,22.5 27.5481,49.2083 30.0803,79.428 2.08937,24.9343 -0.661418,52.3252 -7.42087,81.7524 45.7843,39.5315 82.728,64.7965 112.655,78.7418 28.0713,13.0831 48.2552,15.5079 62.7497,10.2555l20.3421 -7.37245 7.11497 20.5146c6.24686,18.0106 9.13111,34.0949 9.18898,48.4453 0.142913,35.1331 -15.6284,59.2323 -40.539,75.3768 -22.1835,14.3776 -51.4111,21.5587 -82.2343,24.3473 -36.8481,3.33544 -76.317,0.494882 -107.803,-3.56929l-2.35748 116.687 -0.389764 19.2921 -19.1977 1.63583c-45.8752,3.90591 -91.0087,-2.2063 -135.567,-16.0665 -43.6737,-13.585 -86.7603,-34.7055 -129.432,-61.154l-12.2469 -7.59095 2.36929 -14.0894z"/>
  <ellipse class="fil6" cx="1089.89" cy="1099.19" rx="22.2415" ry="22.6007"/>
 </g>
</svg>
